<svg xmlns="http://www.w3.org/2000/svg" width="35" height="35" viewBox="0 0 35 35" fill="none">
  <path fill-rule="evenodd" clip-rule="evenodd" d="M2.91669 17.5C2.91669 9.44587 9.44587 2.91669 17.5 2.91669C25.5542 2.91669 32.0834 9.44587 32.0834 17.5C32.0834 22.0709 29.9804 26.1507 26.6893 28.8245C26.0617 27.0546 24.9339 25.498 23.4354 24.3482C21.7327 23.0416 19.6463 22.3334 17.5 22.3334C15.3537 22.3334 13.2674 23.0416 11.5646 24.3482C10.0661 25.498 8.93838 27.0546 8.31075 28.8245C5.01961 26.1507 2.91669 22.0709 2.91669 17.5ZM22.2179 25.9349C23.5574 26.9627 24.5242 28.3994 24.972 30.0263C22.7868 31.3326 20.2311 32.0834 17.5 32.0834C14.769 32.0834 12.2133 31.3326 10.028 30.0263C10.4759 28.3994 11.4427 26.9627 12.7821 25.9349C14.1356 24.8963 15.794 24.3334 17.5 24.3334C19.2061 24.3334 20.8644 24.8963 22.2179 25.9349ZM14.125 13.125C14.125 11.2611 15.6361 9.75002 17.5 9.75002C19.364 9.75002 20.875 11.2611 20.875 13.125C20.875 14.989 19.364 16.5 17.5 16.5C15.6361 16.5 14.125 14.989 14.125 13.125ZM17.5 7.75002C14.5315 7.75002 12.125 10.1565 12.125 13.125C12.125 16.0936 14.5315 18.5 17.5 18.5C20.4686 18.5 22.875 16.0936 22.875 13.125C22.875 10.1565 20.4686 7.75002 17.5 7.75002Z" fill="#0D0D0D"/>
  <rect x="3.41669" y="3.41669" width="28.1667" height="28.1667" rx="14.0833" stroke="#0D0D0D"/>
</svg>